<svg width="16" height="14" viewBox="0 0 16 14" fill="none" xmlns="http://www.w3.org/2000/svg">
<path d="M6.33325 5.33333C6.33325 4.78105 6.78097 4.33333 7.33325 4.33333H8.66659C9.21887 4.33333 9.66659 4.78105 9.66659 5.33333V11.6667C9.66659 12.219 9.21887 12.6667 8.66659 12.6667H7.33325C6.78097 12.6667 6.33325 12.219 6.33325 11.6667V5.33333Z" stroke="#121212" stroke-width="1.5" stroke-linecap="round" stroke-linejoin="round"/>
<path d="M1.33325 8.66667C1.33325 8.11438 1.78097 7.66667 2.33325 7.66667H3.66659C4.21887 7.66667 4.66659 8.11438 4.66659 8.66667V11.6667C4.66659 12.219 4.21887 12.6667 3.66659 12.6667H2.33325C1.78097 12.6667 1.33325 12.219 1.33325 11.6667V8.66667Z" stroke="#121212" stroke-width="1.5" stroke-linecap="round" stroke-linejoin="round"/>
<path d="M11.3333 2C11.3333 1.44772 11.781 1 12.3333 1H13.6666C14.2189 1 14.6666 1.44772 14.6666 2V11.6667C14.6666 12.219 14.2189 12.6667 13.6666 12.6667H12.3333C11.781 12.6667 11.3333 12.219 11.3333 11.6667V2Z" stroke="#121212" stroke-width="1.5" stroke-linecap="round" stroke-linejoin="round"/>
</svg>
