<svg width="17" height="14" viewBox="0 0 17 14" fill="none" xmlns="http://www.w3.org/2000/svg">
<path d="M13.4209 12.8334H14.6667C15.5871 12.8334 16.3891 12.0634 16.0967 11.1906C15.651 9.86049 14.5546 9.05612 12.6273 8.7775M10.0834 6.05382C10.3259 6.13047 10.6037 6.16675 10.9167 6.16675C12.3056 6.16675 13 5.45246 13 3.66675C13 1.88103 12.3056 1.16675 10.9167 1.16675C10.6037 1.16675 10.3259 1.20303 10.0834 1.27968M5.91667 8.66675C8.73628 8.66675 10.323 9.40438 10.9763 10.8796C11.4236 11.8896 10.4379 12.8334 9.33333 12.8334H2.5C1.39543 12.8334 0.409756 11.8896 0.857021 10.8796C1.51034 9.40438 3.09706 8.66675 5.91667 8.66675ZM5.91667 6.16675C7.30556 6.16675 8 5.45246 8 3.66675C8 1.88103 7.30556 1.16675 5.91667 1.16675C4.52778 1.16675 3.83333 1.88103 3.83333 3.66675C3.83333 5.45246 4.52778 6.16675 5.91667 6.16675Z" stroke="#121212" stroke-width="1.5" stroke-linecap="round" stroke-linejoin="round"/>
</svg>
