<svg width="18" height="16" viewBox="0 0 18 16" fill="none" xmlns="http://www.w3.org/2000/svg">
<path d="M1.5 7.16659H5.66667M3.58333 9.24992V5.08325M11.0833 9.66659C14.0903 9.66659 15.6951 10.6733 16.2609 12.6867C16.5598 13.75 15.6046 14.6666 14.5 14.6666H7.66666C6.56209 14.6666 5.60687 13.75 5.90573 12.6867C6.47159 10.6733 8.07637 9.66659 11.0833 9.66659ZM11.0833 6.33325C12.4722 6.33325 13.1667 5.61897 13.1667 3.83325C13.1667 2.04754 12.4722 1.33325 11.0833 1.33325C9.69444 1.33325 9 2.04754 9 3.83325C9 5.61897 9.69444 6.33325 11.0833 6.33325Z" stroke="#4D007D" stroke-width="1.5" stroke-linecap="round" stroke-linejoin="round"/>
</svg>
